<?xml version="1.0" encoding="UTF-8"?>
<svg fill="#308BD2" width="100pt" height="100pt" version="1.1" viewBox="0 0 100 100" xmlns="http://www.w3.org/2000/svg">
 <path d="m95.629 50.031c-0.089844-0.12109-0.17969-0.25-0.26953-0.35938h0.94141c-6.2109-8.7695-18.82-10.789-27.43-4.3008-1.8789-1.4609-3.9219-1.8086-3.9219-1.8086 0.21094-0.57031 0.5-1.1289 0.64844-1.7109 0.12891-0.48828 0.14062-1.1484 0.39062-1.5898l0.058594-0.12891c0.44141-1.2188 0.87109-2.4414 1.2891-3.6719 0.19922-0.57031 0.32812-1.3984 0.69922-1.8906 0.25-0.32812 0.64062-0.39844 1-0.55859 0.39062-0.17188 0.73047-0.46875 1.0391-0.76172 1.1094 0.17969 2.5391 0.30078 3.4609-0.48828 0.73828-0.64062 0.85938-1.6992 0.85938-2.6289 1.3086-0.21875 2.5391-0.5 2.0703-2.0781-0.67969-2.2891-3.6602-1.2305-5.1797-0.60938-2.25 0.92188-4.8516-0.011718-7.1992 0.10938-1.4102 0.070312-3.1914 0.53906-3.1484 2.2812 1.1602 0.23828 2.3281 0.48047 3.4883 0.73047 0.39844 0.078125 0.98047 0.10156 1.3086 0.37109 0.64844 0.55078 1.0391 1.4609 2.0117 1.4609-0.80078 0.58984-1.2891 1.1016-1.7305 2.0117-0.23828 0.78906-1.6914 4.8711-1.7617 5.0781-0.60938 1.2383-1.1992 2.4805-1.6602 3.7891l-5.1211 13.469c-0.17969 0.46094-0.53906 1.3086-1.1289 1.3086-0.87109 0-1.7305 0.10156-2.6016 0.050781-1.6289-0.089844-3.2617-0.46094-4.7383-1.1719-3.5391-1.7109-5.2109-5.3594-7.1484-8.5703-2.9688-4.9219-5.9414-9.8398-8.8984-14.77l0.32812-0.83984 0.41016-0.16016 1.1094-2.7188-2.5117-1.5781s1.0117-4.5117 1.9883-5.9805h5.1289c0.60156 0 1.1016-0.48828 1.1016-1.1016v-0.51953c0-0.60156-0.48828-1.1016-1.1016-1.1016h-5.8516c-0.89062 0-1.9297 0.14844-2.6992 0.60938-1.0391 0.62891-1.1016 2.3711-1.1211 3.4609l-0.16016 3.9219c-0.67969 0.19922-1.1016 1.8203-1.3789 2.4102-0.39062 0.80078-0.78125 2.1016-1.7188 2.3984h-3.6406c-2.8008 0-2.3711-2.8086-2.3711-2.8086l0.73047-8.4609-0.26172-0.46875h-0.82031l-0.32813 0.32812s-0.16016 0.60938 0.16016 1.1016l-0.64844 7.5391v0.64844c-0.019531 0.80859 0.23047 1.6992 0.80078 2.3008 1.0898 1.1484 3 0.80078 4.4219 0.80078 2.6602-0.078125 1.5117 3.1211 0.64844 4.4883l-0.42188 0.71094c-1.2812 0.12109-4.3008 0.46094-5.4492 0.96875l0.48828 2.1602h1.7891l0.011719-0.078125 0.14844-1.2305h2.2812c0.44141 0.050781 0.92969 0.16016 1.3008 0.41016l-0.64062 1.4219-0.25 0.71875c-9.3086-2.5781-19.32 2.6289-22.531 11.738-3.0703 8.7109 0.92969 18.621 9.1602 22.789 8.3086 4.1992 18.73 1.4219 23.879-6.3203 5.3906-8.1016 3.4297-19.328-4.3398-25.172-1.1914-0.89062-2.4883-1.6484-3.8594-2.2305l0.67969-1.9219c0.55078-0.69922 1.6797-0.46094 2.4688-0.46094l1.0195-2.5117 6.4414 10.988c1.1094 2.1289 2.3789 4.2109 3.7812 6.1602 1.0117 1.4102 2.1211 2.8086 3.4883 3.8906 1.6914 1.3281 3.7188 2.1992 5.7812 2.7891-0.30078 1.3984-0.039063 2.8984 0.75 4.1016l-0.30078 0.44141-0.48047 0.71094c-0.82813-0.23047-2.0703 1.4883-2.2812 2.1602-0.26172 0.85156 0.5 2.2891 1.5195 1.6797 0.67188 0.011718 1.0703-0.42188 1.3906-0.96875l1.3906-2.0703 0.26953-0.41016c3.8906 2.6016 9.1211-0.89844 8.2695-5.4688 0.32812-0.03125 0.67188-0.058594 1-0.089844 1.0117 10 10.191 17.512 20.18 16.621 9.1406-0.82031 16.488-8.5117 16.898-17.68 0.25781-4.1719-0.96484-8.3125-3.375-11.68-0.089844-0.12109 2.1719 3.0391 0 0zm-60.289 10.809v0.078125c0.078125 9.3711-8.6016 16.781-17.801 15.648-9.3008-1.1367-15.688-10.457-13.438-19.547 2.1016-8.4805 11.012-13.73 19.461-11.5l-5.2305 14.922 0.050781 0.019532c-0.5 1.4219 1.7109 2.1992 2.2109 0.76953l0.050781 0.019531 5.2188-14.922c5.5781 2.4531 9.4766 8.0234 9.4766 14.512zm37.609-3.5117c0.48828-0.64844 1.0195-1.2305 1.6602-1.75 0.78125 0.92969 1.5586 1.8594 2.2891 2.7383h-3.9102v-0.98047l-0.039062 0.003906zm-8.7773-11.699s1.5781 0.48047 2.7109 1.4609c-1.7383 1.7305-3.1406 3.7891-4.1289 6.0781l-1.4531 0.003906zm-6.75 18.699c-0.41016 1.4688-2.4297 1.7188-3.2383 0.46094-0.69141-1.0781-0.011719-2.5508 1.25-2.7383 1.2773-0.19141 2.3359 1.0391 1.9883 2.2773 0.007813 0 0 0 0 0-0.011719 0.03125 0 0 0 0zm23.066 12.363c-7.9688 0-14.91-6.1797-15.762-14.121 0.32031-0.019531 4.0586-0.26953 5.7188-0.37891v0.44141c-0.19922 1.0391 2.4609 1.4609 3.1016 1.6719 1.8203 0.60937 3.6484 1.1914 5.4805 1.7891 0.53906 0.26172 1.1719 0.42188 1.7617 0.32812 1.2695-0.19141 1.6992-1.7188 2.1016-2.75 0.39062-1 0.76953-2.2305 0.5-3.3086-0.37109-1.4609-1.9805-2.1797-3.3789-2.0586-1-1.1992-2.1797-2.6211-3.3906-4.0586 2.4805-1.2695 5.2109-1 7.9102-1h4.7617c1.7305 0.03125 2.5391-0.96094 3.7891-2.0195 3.9688 4.9219 4.2305 12.23 1.0781 17.609-2.8008 4.8242-8.082 7.8555-13.672 7.8555z"/>
</svg>
